<mxfile host="app.diagrams.net" modified="2023-06-05T14:33:17.841Z" agent="Mozilla/5.0 (Windows NT 10.0; Win64; x64) AppleWebKit/537.36 (KHTML, like Gecko) Chrome/114.0.0.0 Safari/537.36" version="21.3.4" etag="mo-vaJHyymvQrwPjjjNk" type="github">
  <diagram name="PÃ¡gina-1" id="bhFOZNZi_f_cSNgf-kTp">
    <mxGraphModel>
      <root>
        <mxCell id="0" />
        <mxCell id="1" parent="0" />
      </root>
    </mxGraphModel>
  </diagram>
</mxfile>
